<?xml version="1.0" encoding="utf-8"?>
<!-- Generator: Adobe Illustrator 16.0.3, SVG Export Plug-In . SVG Version: 6.00 Build 0)  -->
<!DOCTYPE svg PUBLIC "-//W3C//DTD SVG 1.1//EN" "http://www.w3.org/Graphics/SVG/1.1/DTD/svg11.dtd">
<svg version="1.1" id="Layer_1" xmlns="http://www.w3.org/2000/svg" xmlns:xlink="http://www.w3.org/1999/xlink" x="0px" y="0px"
	 width="160px" height="53px" viewBox="0 0 160 53" enable-background="new 0 0 160 53" xml:space="preserve">
<rect fill="#5570B6" width="160" height="53"/>
<g>
	<g>
		<radialGradient id="SVGID_1_" cx="65.5439" cy="23.4971" r="20.2182" gradientUnits="userSpaceOnUse">
			<stop  offset="0" style="stop-color:#FFFFFF"/>
			<stop  offset="0.1821" style="stop-color:#DCECF9"/>
			<stop  offset="1" style="stop-color:#3DB2E6"/>
		</radialGradient>
		<radialGradient id="SVGID_2_" cx="70.7686" cy="23.3931" r="17.1619" gradientUnits="userSpaceOnUse">
			<stop  offset="0" style="stop-color:#FFFFFF"/>
			<stop  offset="0.1821" style="stop-color:#DCECF9"/>
			<stop  offset="1" style="stop-color:#3DB2E6"/>
		</radialGradient>
		<path fill="url(#SVGID_1_)" stroke="url(#SVGID_2_)" stroke-miterlimit="10" d="M82.721,24.153
			c-0.755-1.661-6.961-10.071-7.034-10.161c-3.615-5.276-4.726-8.37-4.935-9.016c-0.216,0.67-1.402,3.975-5.352,9.619
			c-0.17,0.224-5.869,7.841-6.672,9.684c-2.136,4.894-1.312,10.791,2.689,14.793c1.091,1.09,4.164,3.864,9.335,3.864
			C80.253,42.937,86.797,33.127,82.721,24.153z"/>
		<linearGradient id="SVGID_3_" gradientUnits="userSpaceOnUse" x1="72.4863" y1="19.4819" x2="77.1408" y2="41.898">
			<stop  offset="0" style="stop-color:#FFFFFF"/>
			<stop  offset="0.2105" style="stop-color:#FCFDFD"/>
			<stop  offset="0.3674" style="stop-color:#F2F5F6"/>
			<stop  offset="0.5069" style="stop-color:#E2E8EB"/>
			<stop  offset="0.6364" style="stop-color:#CCD6DB"/>
			<stop  offset="0.7589" style="stop-color:#AEBFC6"/>
			<stop  offset="0.8762" style="stop-color:#8AA2AD"/>
			<stop  offset="0.9873" style="stop-color:#608190"/>
			<stop  offset="1" style="stop-color:#5B7D8C"/>
		</linearGradient>
		<path fill="url(#SVGID_3_)" d="M75.036,42.161c-0.915,0.319-1.976,0.568-3.07,0.72c2.938-0.271,5.729-1.514,7.922-3.62
			c-0.039,0.034-0.075,0.071-0.115,0.105c0.519-0.802,0.908-1.729,1.029-2.82c0.474-4.213-1.181-7.346-4.692-13.039
			c-2.395-3.885-2.153-6.206-2.208-5.904c-0.526,2.87,1.124,5.242,3.284,10.077C81.313,36.916,77.852,40.755,75.036,42.161z"/>
		<linearGradient id="SVGID_4_" gradientUnits="userSpaceOnUse" x1="61.0532" y1="14.6084" x2="63.5828" y2="38.165">
			<stop  offset="0.0242" style="stop-color:#7AC143"/>
			<stop  offset="0.4165" style="stop-color:#77BD42"/>
			<stop  offset="0.5924" style="stop-color:#6EB242"/>
			<stop  offset="0.725" style="stop-color:#5FA441"/>
			<stop  offset="0.836" style="stop-color:#4A913F"/>
			<stop  offset="0.9324" style="stop-color:#2D7B3C"/>
			<stop  offset="1" style="stop-color:#046937"/>
		</linearGradient>
		<path fill="url(#SVGID_4_)" d="M61.417,39.072c-4-4.003-4.825-9.899-2.689-14.793c0.804-1.842,6.502-9.46,6.672-9.684
			c0.754-1.077,1.405-2.068,1.971-2.973c-1.574-1.674-3.029-2.585-3.029-2.585c0.783,3.809-1.971,6.984-4.375,10.646
			c-3.432,5.222-4.749,8.268-3.322,13.678c1.091,4.142,4.828,7.308,9.124,8.62C63.535,41.073,62.094,39.747,61.417,39.072z"/>
		<linearGradient id="SVGID_5_" gradientUnits="userSpaceOnUse" x1="67.1328" y1="13.8213" x2="72.9533" y2="41.8531">
			<stop  offset="0" style="stop-color:#FFFFFF"/>
			<stop  offset="0.2105" style="stop-color:#FCFDFD"/>
			<stop  offset="0.3674" style="stop-color:#F2F5F6"/>
			<stop  offset="0.5069" style="stop-color:#E2E8EB"/>
			<stop  offset="0.6364" style="stop-color:#CCD6DB"/>
			<stop  offset="0.7589" style="stop-color:#AEBFC6"/>
			<stop  offset="0.8762" style="stop-color:#8AA2AD"/>
			<stop  offset="0.9873" style="stop-color:#608190"/>
			<stop  offset="1" style="stop-color:#5B7D8C"/>
		</linearGradient>
		<path fill="url(#SVGID_5_)" d="M65.933,42.046c0.778,0.304,1.651,0.555,2.615,0.714c1.376-0.261,3.969-1.227,5.087-4.859
			c1.1-3.58-0.505-6.863-2.751-11.201c-1.037-2.004-2.65-4.931-1.491-9.279c0.804-3.013,2.698-5.355,4.139-6.785
			c-0.027-0.046-0.057-0.093-0.083-0.138c-8.809,6.153-7.444,12.146-5.184,16.567C71.316,33.027,73.143,42.548,65.933,42.046z"/>
		<defs>
			<filter id="Adobe_OpacityMaskFilter" filterUnits="userSpaceOnUse" x="59.35" y="17.982" width="21.532" height="22.481">
				<feFlood  style="flood-color:white;flood-opacity:1" result="back"/>
				<feBlend  in="SourceGraphic" in2="back" mode="normal"/>
			</filter>
		</defs>
		<mask maskUnits="userSpaceOnUse" x="59.35" y="17.982" width="21.532" height="22.481" id="SVGID_6_">
			<g filter="url(#Adobe_OpacityMaskFilter)">
				<defs>
					<filter id="Adobe_OpacityMaskFilter_1_" filterUnits="userSpaceOnUse" x="59.35" y="17.982" width="21.532" height="22.481">
						<feFlood  style="flood-color:white;flood-opacity:1" result="back"/>
						<feBlend  in="SourceGraphic" in2="back" mode="normal"/>
					</filter>
				</defs>
				<mask maskUnits="userSpaceOnUse" x="59.35" y="17.982" width="21.532" height="22.481" id="SVGID_6_">
					<g filter="url(#Adobe_OpacityMaskFilter_1_)">
					</g>
				</mask>
				<linearGradient id="SVGID_7_" gradientUnits="userSpaceOnUse" x1="54.6899" y1="27.6699" x2="72.0981" y2="29.4217">
					<stop  offset="0.0485" style="stop-color:#FFFFFF"/>
					<stop  offset="0.8" style="stop-color:#000000"/>
				</linearGradient>
				<ellipse mask="url(#SVGID_6_)" fill="url(#SVGID_7_)" cx="70.116" cy="29.223" rx="10.766" ry="11.24"/>
			</g>
		</mask>
		<linearGradient id="SVGID_8_" gradientUnits="userSpaceOnUse" x1="54.6899" y1="27.6699" x2="72.0981" y2="29.4217">
			<stop  offset="0.0485" style="stop-color:#FFFFFF"/>
			<stop  offset="0.8" style="stop-color:#FFFFFF"/>
		</linearGradient>
		<ellipse opacity="0.47" fill="url(#SVGID_8_)" cx="70.116" cy="29.223" rx="10.766" ry="11.24"/>
		<defs>
			<filter id="Adobe_OpacityMaskFilter_2_" filterUnits="userSpaceOnUse" x="59.362" y="22.363" width="10.754" height="13.718">
				<feFlood  style="flood-color:white;flood-opacity:1" result="back"/>
				<feBlend  in="SourceGraphic" in2="back" mode="normal"/>
			</filter>
		</defs>
		<mask maskUnits="userSpaceOnUse" x="59.362" y="22.363" width="10.754" height="13.718" id="SVGID_9_">
			<g filter="url(#Adobe_OpacityMaskFilter_2_)">
				<defs>
					<filter id="Adobe_OpacityMaskFilter_3_" filterUnits="userSpaceOnUse" x="59.362" y="22.363" width="10.754" height="13.718">
						<feFlood  style="flood-color:white;flood-opacity:1" result="back"/>
						<feBlend  in="SourceGraphic" in2="back" mode="normal"/>
					</filter>
				</defs>
				<mask maskUnits="userSpaceOnUse" x="59.362" y="22.363" width="10.754" height="13.718" id="SVGID_9_">
					<g filter="url(#Adobe_OpacityMaskFilter_3_)">
					</g>
				</mask>
				<linearGradient id="SVGID_10_" gradientUnits="userSpaceOnUse" x1="57.0137" y1="28.4443" x2="65.732" y2="29.3216">
					<stop  offset="0.0485" style="stop-color:#FFFFFF"/>
					<stop  offset="0.8" style="stop-color:#000000"/>
				</linearGradient>
				<ellipse mask="url(#SVGID_9_)" fill="url(#SVGID_10_)" cx="64.739" cy="29.223" rx="5.377" ry="6.858"/>
			</g>
		</mask>
		<linearGradient id="SVGID_11_" gradientUnits="userSpaceOnUse" x1="57.0137" y1="28.4443" x2="65.732" y2="29.3216">
			<stop  offset="0.0485" style="stop-color:#FFFFFF"/>
			<stop  offset="0.8" style="stop-color:#FFFFFF"/>
		</linearGradient>
		<ellipse fill="url(#SVGID_11_)" cx="64.739" cy="29.223" rx="5.377" ry="6.858"/>
		<linearGradient id="SVGID_12_" gradientUnits="userSpaceOnUse" x1="77.3984" y1="5.0913" x2="61.4082" y2="38.9783">
			<stop  offset="0.0485" style="stop-color:#FFFFFF"/>
			<stop  offset="0.6" style="stop-color:#96C93D"/>
			<stop  offset="1" style="stop-color:#7AC143"/>
		</linearGradient>
		<path fill="url(#SVGID_12_)" d="M69.392,17.42c1.378-5.167,5.966-8.364,5.966-8.364s-5.272,3.239-6.65,8.404
			c-1.159,4.349,0.454,7.277,1.492,9.281c2.161,4.169,3.802,7.485,2.69,11.076c-0.505,1.636-3.069,5.049-6.311,4.387
			c-4.63-1.143-8.773-4.438-9.935-8.841c-1.427-5.41-0.11-8.457,3.322-13.678c2.404-3.662,5.159-6.837,4.375-10.646
			c0.591,3.844-2.179,6.781-4.767,10.317c-3.69,5.044-4.946,8.165-3.795,13.639c1.081,5.146,5.751,9.045,10.982,9.783
			c4.211,0.595,6.148-2.541,6.872-4.877c1.111-3.592-0.589-7.028-2.751-11.201C69.846,24.695,68.233,21.768,69.392,17.42z"/>
		<linearGradient id="SVGID_13_" gradientUnits="userSpaceOnUse" x1="73.8667" y1="29.0195" x2="80.8809" y2="29.0195">
			<stop  offset="0.0485" style="stop-color:#FFFFFF"/>
			<stop  offset="0.6" style="stop-color:#96C93D"/>
			<stop  offset="1" style="stop-color:#7AC143"/>
		</linearGradient>
		<path fill="url(#SVGID_13_)" d="M80.801,36.546c0.474-4.213-1.181-7.346-4.692-13.039c-2.395-3.885-2.153-6.206-2.208-5.904
			c-0.01,0.051-0.017,0.103-0.024,0.155c-0.085,0.856,0.324,3.472,1.751,5.75c3.68,5.873,6.539,12.456,2.821,16.955
			C79.875,39.673,80.625,38.133,80.801,36.546z"/>
		<linearGradient id="SVGID_14_" gradientUnits="userSpaceOnUse" x1="75.3389" y1="12.0015" x2="75.9142" y2="41.677">
			<stop  offset="0.0242" style="stop-color:#7AC143"/>
			<stop  offset="0.4165" style="stop-color:#77BD42"/>
			<stop  offset="0.5924" style="stop-color:#6EB242"/>
			<stop  offset="0.725" style="stop-color:#5FA441"/>
			<stop  offset="0.836" style="stop-color:#4A913F"/>
			<stop  offset="0.9324" style="stop-color:#2D7B3C"/>
			<stop  offset="1" style="stop-color:#046937"/>
		</linearGradient>
		<path fill="url(#SVGID_14_)" d="M79.749,19.355c-2.587-3.536-4.981-6.457-4.39-10.299c0,0-4.588,3.198-5.966,8.364
			c-1.159,4.348,0.454,7.275,1.491,9.279c2.246,4.338,3.851,7.621,2.751,11.201c-1.556,5.057-5.975,4.946-5.981,4.948
			c1.759,0.375,5.391,0.158,7.556-0.688c2.99-1.367,6.104-5.245,1.977-14.481c-2.161-4.834-3.811-7.207-3.284-10.077
			c0.054-0.302-0.188,2.019,2.208,5.904c3.511,5.693,5.166,8.826,4.692,13.039c-0.121,1.091-0.51,2.019-1.029,2.82
			c1.871-1.686,3.246-3.874,3.772-6.372C84.696,27.52,83.438,24.399,79.749,19.355z"/>
	</g>
	<radialGradient id="SVGID_15_" cx="37.5381" cy="26.6274" r="24.4776" gradientUnits="userSpaceOnUse">
		<stop  offset="0" style="stop-color:#FFFFFF"/>
		<stop  offset="0.2999" style="stop-color:#FAFBFB"/>
		<stop  offset="0.5228" style="stop-color:#F1F2F2"/>
		<stop  offset="0.7209" style="stop-color:#E4E5E6"/>
		<stop  offset="0.9035" style="stop-color:#D1D3D4"/>
		<stop  offset="1" style="stop-color:#C4C6C8"/>
	</radialGradient>
	<path fill="url(#SVGID_15_)" d="M30.022,24.696h15.033V12.279h3.496v28.696h-3.496V27.85H30.022v13.126h-3.496V12.279h3.496V24.696
		z"/>
	<radialGradient id="SVGID_16_" cx="54.0601" cy="42.7871" r="9.9441" gradientUnits="userSpaceOnUse">
		<stop  offset="0" style="stop-color:#FFFFFF"/>
		<stop  offset="0.2999" style="stop-color:#FAFBFB"/>
		<stop  offset="0.5228" style="stop-color:#F1F2F2"/>
		<stop  offset="0.7209" style="stop-color:#E4E5E6"/>
		<stop  offset="0.9035" style="stop-color:#D1D3D4"/>
		<stop  offset="1" style="stop-color:#C4C6C8"/>
	</radialGradient>
	<path fill="url(#SVGID_16_)" d="M52.649,47.097c0.81-0.051,1.54-0.072,2.189-0.072h3.309v1.761h-8.173v-1.27
		c0.81-0.697,1.558-1.348,2.242-1.948c0.684-0.602,1.273-1.181,1.771-1.737c0.497-0.552,0.886-1.09,1.168-1.616
		c0.282-0.524,0.422-1.054,0.422-1.588c0-0.713-0.197-1.26-0.591-1.634c-0.395-0.381-0.962-0.566-1.702-0.566
		c-0.549,0.006-1.084,0.102-1.602,0.282c-0.518,0.18-1.053,0.418-1.603,0.711v-1.62c0.402-0.272,0.896-0.51,1.486-0.708
		c0.589-0.203,1.235-0.303,1.94-0.303c0.557,0,1.067,0.082,1.529,0.245c0.462,0.165,0.861,0.404,1.198,0.721
		c0.337,0.314,0.597,0.706,0.781,1.169c0.185,0.463,0.277,0.997,0.277,1.605c0,0.648-0.122,1.254-0.362,1.814
		c-0.241,0.563-0.57,1.102-0.989,1.618c-0.417,0.518-0.908,1.027-1.473,1.531c-0.563,0.505-1.169,1.024-1.818,1.554V47.097z"/>
	<radialGradient id="SVGID_17_" cx="100.8398" cy="28.0674" r="18.9225" gradientUnits="userSpaceOnUse">
		<stop  offset="0" style="stop-color:#FFFFFF"/>
		<stop  offset="0.2999" style="stop-color:#FAFBFB"/>
		<stop  offset="0.5228" style="stop-color:#F1F2F2"/>
		<stop  offset="0.7209" style="stop-color:#E4E5E6"/>
		<stop  offset="0.9035" style="stop-color:#D1D3D4"/>
		<stop  offset="1" style="stop-color:#C4C6C8"/>
	</radialGradient>
	<path fill="url(#SVGID_17_)" d="M101.644,42.414h-1.608l-7.228-17.135c-1-2.359-2.001-4.925-3.003-7.699h-0.171
		c0.2,3.989,0.301,7.642,0.301,10.959v13.875h-3.497V13.72h5.041l6.756,16.234c0.771,1.858,1.621,4.096,2.551,6.713h0.108
		c1.028-2.902,1.88-5.14,2.552-6.713l6.756-16.234h5.04v28.694h-3.497V28.539c0-3.245,0.101-6.898,0.299-10.959h-0.17
		c-1.058,2.931-2.059,5.497-3.003,7.699L101.644,42.414z"/>
	<radialGradient id="SVGID_18_" cx="127.7051" cy="28.0674" r="16.5459" gradientUnits="userSpaceOnUse">
		<stop  offset="0" style="stop-color:#FFFFFF"/>
		<stop  offset="0.2999" style="stop-color:#FAFBFB"/>
		<stop  offset="0.5228" style="stop-color:#F1F2F2"/>
		<stop  offset="0.7209" style="stop-color:#E4E5E6"/>
		<stop  offset="0.9035" style="stop-color:#D1D3D4"/>
		<stop  offset="1" style="stop-color:#C4C6C8"/>
	</radialGradient>
	<path fill="url(#SVGID_18_)" d="M122.097,39.261h14.712v3.153h-18.208V13.72h17.414v3.153h-13.918v9.264h12.373v3.152h-12.373
		V39.261z"/>
</g>
</svg>
