<?xml version="1.0" encoding="utf-8"?>
<!-- Generator: Adobe Illustrator 16.0.3, SVG Export Plug-In . SVG Version: 6.00 Build 0)  -->
<!DOCTYPE svg PUBLIC "-//W3C//DTD SVG 1.1//EN" "http://www.w3.org/Graphics/SVG/1.1/DTD/svg11.dtd">
<svg version="1.1" xmlns="http://www.w3.org/2000/svg" xmlns:xlink="http://www.w3.org/1999/xlink" x="0px" y="0px" width="480px"
	 height="480px" viewBox="0 0 480 480" enable-background="new 0 0 480 480" xml:space="preserve">
<g id="Layer_1" display="none">
</g>
<g id="Layer_2" display="none">
	<g display="inline">
		<path fill="#FFC800" d="M385.369,241.64c0,80.983-65.651,146.631-146.631,146.631c-80.979,0-146.63-65.647-146.63-146.631
			c0-80.98,65.651-146.627,146.63-146.627C319.718,95.012,385.369,160.66,385.369,241.64z"/>
		<g>
			<g>
				<path fill="#FFC800" d="M362.714,345.852c7.264-6.958,22.521-31.531,28.117-48.624c15.214,13.753,33.319,35.914,45.862,58.997
					C410.564,356.839,382.119,352.177,362.714,345.852z"/>
			</g>
			<g>
				<path fill="#FFC800" d="M293.931,393.903c11.568-4.482,9.842-3.544,25.653-11.84c13.43-8.925,3.753-1.27,23.188-16.195
					c11.609,37.831,10.176,74.073,10.176,74.073S320.526,422.848,293.931,393.903z"/>
			</g>
			<g>
				<path fill="#FFC800" d="M210.42,401.261c35.639,4.304,37.512,1.53,47.563,1.325c5.235-0.707,8.698-1.448,8.698-1.448
					c-5.336,24.45-17.164,51.413-28.227,69.24C225.387,448.646,215.677,424.199,210.42,401.261z"/>
			</g>
			<g>
				<path fill="#FFC800" d="M134.526,365.618c6.958,7.264,31.528,22.519,48.625,28.117c-14.413,15.954-36.521,33.647-58.998,45.862
					C123.532,413.089,128.331,384.63,134.526,365.618z"/>
			</g>
			<g>
				<path fill="#FFC800" d="M86.475,296.832c4.483,11.571,3.548,9.84,11.84,25.656c8.924,13.426,1.273,3.753,16.196,23.188
					c-37.828,11.605-74.073,10.176-74.073,10.176S57.53,323.428,86.475,296.832z"/>
			</g>
			<g>
				<path fill="#FFC800" d="M79.118,213.317c-2.48,20.556-1.988,12.767-2.316,28.189c-0.455,7.073,0.882,14.089,0.99,19.379
					c0.708,5.238,1.448,8.697,1.452,8.697C54.95,264.28,28.058,252.571,10,241.356C31.658,228.333,56.272,218.559,79.118,213.317z"
					/>
			</g>
			<g>
				<path fill="#FFC800" d="M114.763,137.431c0,0-2.577,2.469-5.495,6.899c-8.545,11.843-17.339,25.593-22.626,41.726
					c-15.95-14.413-33.646-36.521-45.858-58.998C66.913,126.44,95.061,131.004,114.763,137.431z"/>
			</g>
			<g>
				<path fill="#FFC800" d="M183.546,89.379c-26.167,10.138-36.714,18.724-48.841,28.04c-11.609-37.835-10.179-74.077-10.179-74.077
					S157.063,60.558,183.546,89.379z"/>
			</g>
			<g>
				<path fill="#FFC800" d="M267.061,82.026c-35.646-4.308-37.515-1.534-47.567-1.329c-5.235,0.708-8.697,1.448-8.697,1.448
					c5.149-23.631,16.464-50.304,28.226-69.24C250.813,32.507,261.356,57.144,267.061,82.026z"/>
			</g>
			<g>
				<path fill="#FFC800" d="M342.947,117.664c-6.877-7.182-31.401-22.477-48.621-28.117c13.75-15.213,35.914-33.319,58.994-45.863
					C353.945,70.19,349.146,98.654,342.947,117.664z"/>
			</g>
			<g>
				<path fill="#FFC800" d="M390.998,186.45c-4.479-11.568-3.544-9.84-11.836-25.657c-8.924-13.425-1.276-3.752-16.199-23.188
					c37.831-11.608,74.073-10.175,74.073-10.175S419.868,159.926,390.998,186.45z"/>
			</g>
			<g>
				<path fill="#FFC800" d="M398.355,269.962c2.479-20.549,1.992-12.767,2.32-28.188c0.454-7.07-0.887-14.082-0.994-19.379
					c-0.704-5.234-1.444-8.697-1.452-8.697c24.453,5.336,51.417,17.165,69.247,28.225
					C447.871,253.717,423.238,264.261,398.355,269.962z"/>
			</g>
		</g>
		<path fill="#FFC800" d="M385.343,241.613c0,81.039-65.591,146.631-146.626,146.631c-0.104,0-0.104,0-0.197,0
			c-80.842-0.1-146.434-65.692-146.434-146.631c0-80.842,65.591-146.538,146.434-146.631c0.093,0,0.093,0,0.197,0
			C319.752,94.982,385.343,160.671,385.343,241.613z"/>
		<g>
			<g>
				<path fill="#FFC800" d="M436.664,356.177c-26.1,0.688-54.545-4.003-73.901-10.361c7.237-6.941,22.48-31.473,28.053-48.581
					C406.066,311.018,424.15,333.106,436.664,356.177z"/>
			</g>
			<g>
				<path fill="#FFC800" d="M352.984,439.952c0,0-32.451-17.104-59.038-46.037c11.534-4.498,9.873-3.526,25.608-11.829
					c13.493-8.898,3.815-1.276,23.266-16.229C354.359,403.688,352.984,439.952,352.984,439.952z"/>
			</g>
			<g>
				<path fill="#FFC800" d="M266.67,401.145c-5.28,24.343-17.008,51.224-28.151,69.015c0,0.1-0.101,0.1-0.101,0.196
					c-12.998-21.705-22.771-46.142-27.958-69.11c13.392,1.561,21.997,2.25,28.058,2.343c10.068,0.298,13.198-0.876,19.451-0.979
					C263.244,401.928,266.67,401.145,266.67,401.145z"/>
			</g>
			<g>
				<path fill="#FFC800" d="M134.526,365.618c6.958,7.264,31.528,22.519,48.625,28.117c-14.413,15.954-36.521,33.647-58.998,45.862
					C123.532,413.089,128.331,384.63,134.526,365.618z"/>
			</g>
			<g>
				<path fill="#FFC800" d="M86.475,296.832c4.483,11.571,3.548,9.84,11.84,25.656c8.924,13.426,1.273,3.753,16.196,23.188
					c-37.828,11.605-74.073,10.176-74.073,10.176S57.53,323.428,86.475,296.832z"/>
			</g>
			<g>
				<path fill="#FFC800" d="M79.118,213.317c-2.48,20.556-1.988,12.767-2.316,28.189c-0.455,7.073,0.882,14.089,0.99,19.379
					c0.708,5.238,1.448,8.697,1.452,8.697C54.95,264.28,28.058,252.571,10,241.356C31.658,228.333,56.272,218.559,79.118,213.317z"
					/>
			</g>
			<g>
				<path fill="#FFC800" d="M114.763,137.431c0,0-2.577,2.469-5.495,6.899c-8.545,11.843-17.339,25.593-22.626,41.726
					c-15.95-14.413-33.646-36.521-45.858-58.998C66.913,126.44,95.061,131.004,114.763,137.431z"/>
			</g>
			<g>
				<path fill="#FFC800" d="M183.546,89.379c-26.167,10.138-36.714,18.724-48.841,28.04c-11.609-37.835-10.179-74.077-10.179-74.077
					S157.063,60.558,183.546,89.379z"/>
			</g>
			<g>
				<path fill="#FFC800" d="M267.061,81.981c-13.682-1.661-22.48-2.249-28.542-2.349c-9.777-0.194-12.901,0.979-19.067,1.08
					c-5.179,0.681-8.694,1.463-8.694,1.463c5.083-23.363,16.226-49.656,27.761-68.525c0.197-0.291,0.29-0.488,0.488-0.778
					C250.836,32.519,261.39,57.151,267.061,81.981z"/>
			</g>
			<g>
				<path fill="#FFC800" d="M342.917,117.66c-6.843-7.137-31.375-22.48-48.584-28.15c13.787-15.154,35.877-33.237,58.946-45.848
					C353.964,70.153,349.172,98.695,342.917,117.66z"/>
			</g>
			<g>
				<path fill="#FFC800" d="M437.058,127.434c0,0-17.211,32.459-46.044,59.046c-4.494-11.635-3.522-9.87-11.829-25.708
					c-8.991-13.393-1.272-3.716-16.225-23.169C400.791,125.967,437.058,127.434,437.058,127.434z"/>
			</g>
			<g>
				<path fill="#FFC800" d="M400.687,241.807c0.395-7.133-0.875-14.074-0.975-19.454c-0.778-5.179-1.468-8.697-1.468-8.697
					c24.438,5.377,51.421,17.206,69.211,28.249c-19.548,11.828-44.184,22.387-69.11,28.058
					C400.884,249.432,400.3,257.154,400.687,241.807z"/>
			</g>
		</g>
		<path fill="#FFDC00" d="M267.061,81.981c-13.682-1.661-22.48-2.249-28.542-2.349V13.649c0.197-0.291,0.29-0.488,0.488-0.778
			C250.836,32.519,261.39,57.151,267.061,81.981z"/>
		<path fill="#FFDC00" d="M257.97,402.608c5.274-0.681,8.7-1.464,8.7-1.464c-5.28,24.343-17.008,51.224-28.151,69.015v-66.571
			C248.587,403.886,251.717,402.712,257.97,402.608z"/>
		<path fill="#FFDC00" d="M238.716,388.244c-0.104,0-0.104,0-0.197,0V94.982c0.093,0,0.093,0,0.197,0
			c81.036,0,146.626,65.689,146.626,146.631C385.343,322.652,319.752,388.244,238.716,388.244z"/>
		<path fill="#FFDC00" d="M342.82,365.856c11.539,37.832,10.164,74.096,10.164,74.096s-32.451-17.104-59.038-46.037
			c11.534-4.498,9.873-3.526,25.608-11.829C333.048,373.188,323.37,380.81,342.82,365.856z"/>
		<path fill="#FFDC00" d="M342.917,117.66c-6.843-7.137-31.375-22.48-48.584-28.15c13.787-15.154,35.877-33.237,58.946-45.848
			C353.964,70.153,349.172,98.695,342.917,117.66z"/>
		<path fill="#FFDC00" d="M436.664,356.177c-26.1,0.688-54.545-4.003-73.901-10.361c7.237-6.941,22.48-31.473,28.053-48.581
			C406.066,311.018,424.15,333.106,436.664,356.177z"/>
		<path fill="#FFDC00" d="M379.185,160.771c-8.991-13.393-1.272-3.716-16.225-23.169c37.831-11.635,74.098-10.168,74.098-10.168
			s-17.211,32.459-46.044,59.046C386.52,174.845,387.491,176.61,379.185,160.771z"/>
		<path fill="#FFDC00" d="M400.687,241.807c0.395-7.133-0.875-14.074-0.975-19.454c-0.778-5.179-1.468-8.697-1.468-8.697
			c24.438,5.377,51.421,17.206,69.211,28.249c-19.548,11.828-44.184,22.387-69.11,28.058
			C400.884,249.432,400.3,257.154,400.687,241.807z"/>
		<path fill="#FFFFFF" d="M368.53,241.613h-15.251c0-63.171-51.392-114.566-114.563-114.566l-0.164-15.25h0.164
			C310.295,111.796,368.53,170.031,368.53,241.613z"/>
		<path fill="#FFC800" d="M323.468,241.613c0,46.823-37.929,84.751-84.751,84.751c-0.104,0-0.104,0-0.104,0h-0.093
			c-46.723-0.197-84.554-38.028-84.554-84.751c0-46.73,37.832-84.558,84.554-84.751h0.093c0,0,0,0,0.104,0
			C285.539,156.862,323.468,194.883,323.468,241.613z"/>
		<path fill="#FFDC00" d="M238.519,156.862v169.502c-46.723-0.197-84.554-38.028-84.554-84.751
			C153.965,194.883,191.796,157.056,238.519,156.862z"/>
	</g>
</g>
<g id="Layer_6">
	<g>
		<g>
			<circle fill="#FFC800" cx="133.161" cy="163.8" r="82.113"/>
			<g>
				<g>
					<path fill="#FFC800" d="M202.585,222.158c4.072-3.895,12.611-17.655,15.753-27.231c8.52,7.704,18.655,20.117,25.68,33.042
						C229.383,228.312,213.454,225.699,202.585,222.158z"/>
				</g>
				<g>
					<path fill="#FFC800" d="M164.076,249.067c6.475-2.508,5.505-1.983,14.357-6.63c7.525-4.997,2.106-0.709,12.986-9.071
						c6.505,21.187,5.699,41.482,5.699,41.482S178.962,265.28,164.076,249.067z"/>
				</g>
				<g>
					<path fill="#FFC800" d="M117.302,253.186c19.959,2.411,21.009,0.858,26.64,0.746c2.925-0.397,4.867-0.813,4.867-0.816
						c-2.985,13.696-9.611,28.794-15.801,38.779C125.688,279.723,120.251,266.034,117.302,253.186z"/>
				</g>
				<g>
					<path fill="#FFC800" d="M74.806,233.23c3.896,4.066,17.653,12.607,27.229,15.745c-8.07,8.935-20.45,18.841-33.042,25.68
						C68.647,259.812,71.335,243.876,74.806,233.23z"/>
				</g>
				<g>
					<path fill="#FFC800" d="M47.893,194.708c2.512,6.481,1.991,5.51,6.632,14.366c4.994,7.52,0.711,2.104,9.072,12.984
						c-21.189,6.502-41.482,5.701-41.482,5.701S31.686,209.6,47.893,194.708z"/>
				</g>
				<g>
					<path fill="#FFC800" d="M43.778,147.938c-1.395,11.515-1.116,7.151-1.298,15.79c-0.255,3.959,0.492,7.886,0.552,10.85
						c0.394,2.933,0.813,4.87,0.819,4.87c-13.605-2.968-28.672-9.524-38.782-15.805C17.2,156.351,30.987,150.877,43.778,147.938z"/>
				</g>
				<g>
					<path fill="#FFC800" d="M63.738,105.444c0,0-1.439,1.383-3.077,3.859c-4.789,6.636-9.709,14.336-12.671,23.369
						c-8.932-8.07-18.842-20.452-25.68-33.036C36.94,99.287,52.699,101.846,63.738,105.444z"/>
				</g>
				<g>
					<path fill="#FFC800" d="M102.252,78.531c-14.648,5.68-20.56,10.489-27.35,15.708c-6.499-21.191-5.697-41.486-5.697-41.486
						S87.422,62.393,102.252,78.531z"/>
				</g>
				<g>
					<path fill="#FFC800" d="M149.027,74.414c-19.964-2.409-21.008-0.858-26.639-0.743c-2.932,0.397-4.867,0.813-4.867,0.816
						c2.876-13.235,9.211-28.172,15.801-38.779C139.925,46.685,145.829,60.484,149.027,74.414z"/>
				</g>
				<g>
					<path fill="#FFC800" d="M191.517,94.375c-3.848-4.023-17.587-12.588-27.222-15.748c7.695-8.519,20.11-18.657,33.035-25.684
						C197.676,67.788,194.989,83.729,191.517,94.375z"/>
				</g>
				<g>
					<path fill="#FFC800" d="M218.429,132.894c-2.504-6.478-1.983-5.513-6.633-14.37c-4.993-7.519-0.709-2.1-9.065-12.983
						c21.184-6.499,41.482-5.695,41.482-5.695S234.595,118.039,218.429,132.894z"/>
				</g>
				<g>
					<path fill="#FFC800" d="M222.551,179.66c1.388-11.506,1.116-7.146,1.297-15.785c0.255-3.959-0.498-7.882-0.558-10.849
						c-0.388-2.931-0.812-4.876-0.812-4.876c13.695,2.991,28.793,9.615,38.775,15.807
						C250.282,170.563,236.482,176.467,222.551,179.66z"/>
				</g>
			</g>
			<path fill="#FFC800" d="M215.262,163.785c0,45.381-36.731,82.113-82.109,82.113c-0.061,0-0.061,0-0.109,0
				c-45.275-0.056-82.007-36.786-82.007-82.113c0-45.273,36.732-82.062,82.007-82.113c0.048,0,0.048,0,0.109,0
				C178.531,81.671,215.262,118.458,215.262,163.785z"/>
			<g>
				<g>
					<path fill="#FFC800" d="M244.002,227.941c-14.619,0.385-30.548-2.242-41.386-5.805c4.053-3.883,12.59-17.623,15.709-27.204
						C226.865,202.648,236.993,215.022,244.002,227.941z"/>
				</g>
				<g>
					<path fill="#FFC800" d="M197.142,274.858c0,0-18.175-9.578-33.066-25.785c6.463-2.518,5.535-1.975,14.346-6.622
						c7.554-4.983,2.134-0.713,13.021-9.088C197.913,254.55,197.142,274.858,197.142,274.858z"/>
				</g>
				<g>
					<path fill="#FFC800" d="M148.809,253.122c-2.962,13.636-9.528,28.685-15.765,38.647c0,0.058-0.061,0.058-0.061,0.113
						c-7.282-12.155-12.756-25.839-15.657-38.703c7.5,0.874,12.319,1.259,15.717,1.31c5.63,0.17,7.391-0.488,10.886-0.546
						C146.885,253.562,148.809,253.122,148.809,253.122z"/>
				</g>
				<g>
					<path fill="#FFC800" d="M74.806,233.23c3.896,4.066,17.653,12.607,27.229,15.745c-8.07,8.935-20.45,18.841-33.042,25.68
						C68.647,259.812,71.335,243.876,74.806,233.23z"/>
				</g>
				<g>
					<path fill="#FFC800" d="M47.893,194.708c2.512,6.481,1.991,5.51,6.632,14.366c4.994,7.52,0.711,2.104,9.072,12.984
						c-21.189,6.502-41.482,5.701-41.482,5.701S31.686,209.6,47.893,194.708z"/>
				</g>
				<g>
					<path fill="#FFC800" d="M43.778,147.938c-1.395,11.515-1.116,7.151-1.298,15.79c-0.255,3.959,0.492,7.886,0.552,10.85
						c0.394,2.933,0.813,4.87,0.819,4.87c-13.605-2.968-28.672-9.524-38.782-15.805C17.2,156.351,30.987,150.877,43.778,147.938z"/>
				</g>
				<g>
					<path fill="#FFC800" d="M63.738,105.444c0,0-1.439,1.383-3.077,3.859c-4.789,6.636-9.709,14.336-12.671,23.369
						c-8.932-8.07-18.842-20.452-25.68-33.036C36.94,99.287,52.699,101.846,63.738,105.444z"/>
				</g>
				<g>
					<path fill="#FFC800" d="M102.252,78.531c-14.648,5.68-20.56,10.489-27.35,15.708c-6.499-21.191-5.697-41.486-5.697-41.486
						S87.422,62.393,102.252,78.531z"/>
				</g>
				<g>
					<path fill="#FFC800" d="M149.027,74.393c-7.665-0.932-12.597-1.263-15.983-1.318c-5.48-0.105-7.234,0.547-10.681,0.608
						c-2.9,0.379-4.867,0.816-4.867,0.816c2.846-13.084,9.09-27.805,15.547-38.373c0.109-0.164,0.157-0.272,0.267-0.434
						C139.937,46.694,145.846,60.487,149.027,74.393z"/>
				</g>
				<g>
					<path fill="#FFC800" d="M191.505,94.373c-3.835-3.996-17.575-12.589-27.21-15.765c7.718-8.487,20.092-18.612,33.011-25.675
						C197.688,67.77,195.006,83.75,191.505,94.373z"/>
				</g>
				<g>
					<path fill="#FFC800" d="M244.226,99.846c0,0-9.643,18.175-25.79,33.063c-2.511-6.512-1.973-5.528-6.621-14.397
						c-5.037-7.497-0.71-2.078-9.091-12.974C223.909,99.024,244.226,99.846,244.226,99.846z"/>
				</g>
				<g>
					<path fill="#FFC800" d="M223.848,163.897c0.23-3.997-0.486-7.886-0.539-10.896c-0.438-2.9-0.826-4.869-0.826-4.869
						c13.689,3.01,28.8,9.633,38.76,15.813c-10.948,6.63-24.743,12.54-38.699,15.715C223.97,168.163,223.637,172.49,223.848,163.897
						z"/>
				</g>
			</g>
			<path fill="#FFDC00" d="M149.027,74.393c-7.665-0.932-12.597-1.263-15.983-1.318V36.126c0.109-0.164,0.157-0.272,0.267-0.434
				C139.937,46.694,145.846,60.487,149.027,74.393z"/>
			<path fill="#FFDC00" d="M143.929,253.943c2.956-0.382,4.879-0.821,4.879-0.821c-2.962,13.636-9.528,28.685-15.765,38.647v-37.28
				C138.673,254.659,140.434,254.001,143.929,253.943z"/>
			<path fill="#FFDC00" d="M133.153,245.897c-0.061,0-0.061,0-0.109,0V81.671c0.048,0,0.048,0,0.109,0
				c45.378,0,82.109,36.787,82.109,82.113C215.262,209.166,178.531,245.897,133.153,245.897z"/>
			<path fill="#FFDC00" d="M191.444,233.363c6.469,21.187,5.698,41.495,5.698,41.495s-18.175-9.578-33.066-25.785
				c6.463-2.518,5.535-1.975,14.346-6.622C185.977,237.468,180.557,241.738,191.444,233.363z"/>
			<path fill="#FFDC00" d="M191.505,94.373c-3.835-3.996-17.575-12.589-27.21-15.765c7.718-8.487,20.092-18.612,33.011-25.675
				C197.688,67.77,195.006,83.75,191.505,94.373z"/>
			<path fill="#FFDC00" d="M244.002,227.941c-14.619,0.385-30.548-2.242-41.386-5.805c4.053-3.883,12.59-17.623,15.709-27.204
				C226.865,202.648,236.993,215.022,244.002,227.941z"/>
			<path fill="#FFDC00" d="M211.815,118.512c-5.037-7.497-0.71-2.078-9.091-12.974c21.185-6.514,41.501-5.692,41.501-5.692
				s-9.643,18.175-25.79,33.063C215.925,126.397,216.463,127.381,211.815,118.512z"/>
			<path fill="#FFDC00" d="M223.848,163.897c0.23-3.997-0.486-7.886-0.539-10.896c-0.438-2.9-0.826-4.869-0.826-4.869
				c13.689,3.01,28.8,9.633,38.76,15.813c-10.948,6.63-24.743,12.54-38.699,15.715C223.97,168.163,223.637,172.49,223.848,163.897z"
				/>
			<path fill="#FFFFFF" d="M206.239,163.785h-9.322c0-35.163-28.605-63.769-63.764-63.769l-0.092-9.321h0.092
				C173.452,90.695,206.239,123.482,206.239,163.785z"/>
		</g>
		<path fill="#00AAC8" d="M478,279.16c0,19.77-7.997,37.705-20.984,50.641c-12.997,12.928-30.869,20.978-50.646,20.978H106.755
			c-34.352,0-62.242-27.887-62.242-62.242c0-34.353,27.89-62.179,62.242-62.179c11.033,0,21.361,2.852,30.366,7.925
			c-1.456-4.06-2.354-8.429-2.354-12.996c0-20.978,16.991-37.898,37.969-37.898c12.361,0,23.393,5.955,30.298,15.207
			c3.295-47.476,41.137-85.435,88.609-88.609c2.159-0.188,4.309-0.252,6.528-0.252c52.733,0,95.521,42.785,95.521,95.518
			c0,1.205-0.128,2.342-0.188,3.55c4.175-0.762,8.482-1.208,12.864-1.208C445.923,207.594,478,239.668,478,279.16z"/>
		<path fill="#00B4D2" d="M478,279.16c0,19.77-7.997,37.705-20.984,50.641c-12.997,12.928-30.869,20.978-50.646,20.978H291.644
			V109.986c2.159-0.188,4.309-0.252,6.528-0.252c52.733,0,95.521,42.785,95.521,95.518c0,1.205-0.128,2.342-0.188,3.55
			c4.175-0.762,8.482-1.208,12.864-1.208C445.923,207.594,478,239.668,478,279.16z"/>
		<path fill="#FFFFFF" d="M370.531,205.492h-9.321c0-34.884-28.381-63.265-63.268-63.265c-1.981,0-3.938,0.095-5.871,0.273
			l-0.854-9.284c2.217-0.204,4.455-0.31,6.726-0.31C337.968,132.906,370.531,165.469,370.531,205.492z"/>
		<g>
			<path fill="#96DCF0" d="M381.751,396.86c0,24.855-20.194,44.99-45.052,44.99c-24.921,0-45.05-20.135-45.05-44.99
				c0-24.917,45.05-88.609,45.05-88.609S381.751,371.943,381.751,396.86z"/>
			<path fill="#A0E6FA" d="M381.751,396.86c0,24.855-20.194,44.99-45.052,44.99v-133.6
				C336.699,308.251,381.751,371.943,381.751,396.86z"/>
			<path fill="#FFFFFF" d="M336.699,429.423v-6.215c14.563,0,26.41-11.819,26.41-26.348h6.214
				C369.323,414.817,354.689,429.423,336.699,429.423z"/>
		</g>
		<path fill="#96DCF0" d="M264.136,352.21c0,12.286-9.981,22.238-22.271,22.238c-12.319,0-22.264-9.952-22.264-22.238
			c0-12.316,22.264-43.798,22.264-43.798S264.136,339.894,264.136,352.21z"/>
		<path fill="#A0E6FA" d="M264.136,352.21c0,12.286-9.981,22.238-22.271,22.238v-66.036
			C241.865,308.412,264.136,339.894,264.136,352.21z"/>
	</g>
</g>
<g id="Layer_5" display="none">
	<path display="inline" fill="#00AAC8" d="M478,255.23c0,21.596-8.736,41.189-22.921,55.322
		c-14.198,14.119-33.727,22.906-55.322,22.906H72.482c-37.53,0-67.995-30.451-67.995-67.98c0-37.531,30.464-67.915,67.995-67.915
		c12.051,0,23.333,3.115,33.169,8.656c-1.59-4.441-2.572-9.213-2.572-14.198c0-22.921,18.56-41.402,41.468-41.402
		c13.509,0,25.559,6.51,33.103,16.611c3.593-51.861,44.928-93.315,96.79-96.789c2.358-0.199,4.706-0.278,7.132-0.278
		c57.602,0,104.333,46.744,104.333,104.346c0,1.313-0.133,2.558-0.199,3.871c4.561-0.836,9.267-1.313,14.052-1.313
		C442.962,177.067,478,212.092,478,255.23z"/>
	<path display="inline" fill="#00B4D2" d="M478,255.23c0,21.596-8.736,41.189-22.921,55.322
		c-14.198,14.119-33.727,22.906-55.322,22.906H274.439V70.442c2.358-0.199,4.706-0.278,7.132-0.278
		c57.602,0,104.333,46.744,104.333,104.346c0,1.313-0.133,2.558-0.199,3.871c4.561-0.836,9.267-1.313,14.052-1.313
		C442.962,177.067,478,212.092,478,255.23z"/>
	<path display="inline" fill="#FFFFFF" d="M360.61,174.761h-10.183c0-38.1-31.002-69.095-69.108-69.095
		c-2.16,0-4.295,0.1-6.402,0.298l-0.956-10.141c2.427-0.226,4.88-0.338,7.358-0.338C325.041,95.485,360.61,131.046,360.61,174.761z"
		/>
	<g display="inline">
		<g>
			<path fill="#96DCF0" d="M372.859,383.797c0,27.15-22.061,49.145-49.21,49.145c-27.217,0-49.21-21.994-49.21-49.145
				c0-27.217,49.21-96.789,49.21-96.789S372.859,356.58,372.859,383.797z"/>
			<path fill="#A0E6FA" d="M372.859,383.797c0,27.15-22.061,49.145-49.21,49.145V287.008
				C323.649,287.008,372.859,356.58,372.859,383.797z"/>
			<path fill="#FFFFFF" d="M323.649,419.365v-6.787c15.907,0,28.847-12.912,28.847-28.781h6.787
				C359.283,403.41,343.296,419.365,323.649,419.365z"/>
		</g>
		<path fill="#96DCF0" d="M244.385,335.023c0,13.432-10.896,24.301-24.325,24.301c-13.456,0-24.313-10.869-24.313-24.301
			c0-13.441,24.313-47.83,24.313-47.83S244.385,321.582,244.385,335.023z"/>
		<path fill="#A0E6FA" d="M244.385,335.023c0,13.432-10.896,24.301-24.325,24.301v-72.131
			C220.06,287.193,244.385,321.582,244.385,335.023z"/>
	</g>
</g>
<g id="Layer_4" display="none">
	<g display="inline">
		<path fill="#00AAC8" d="M477.672,199.584c0,21.576-8.729,41.146-22.901,55.265c-14.185,14.105-33.695,22.894-55.271,22.894H72.52
			c-37.497,0-67.934-30.431-67.934-67.927c0-37.49,30.437-67.854,67.934-67.854c12.04,0,23.312,3.113,33.139,8.649
			c-1.589-4.438-2.569-9.206-2.569-14.186c0-22.894,18.543-41.364,41.43-41.364c13.497,0,25.537,6.503,33.073,16.596
			c3.589-51.808,44.887-93.231,96.702-96.702c2.357-0.198,4.701-0.271,7.125-0.271c57.55,0,104.238,46.695,104.238,104.245
			c0,1.311-0.132,2.556-0.198,3.867c4.557-0.828,9.258-1.311,14.04-1.311C442.665,121.485,477.672,156.485,477.672,199.584z"/>
		<path fill="#00B4D2" d="M477.672,199.584c0,21.576-8.729,41.146-22.901,55.265c-14.185,14.105-33.695,22.894-55.271,22.894
			H274.295V14.956c2.357-0.198,4.701-0.271,7.125-0.271c57.55,0,104.238,46.695,104.238,104.245c0,1.311-0.132,2.556-0.198,3.867
			c4.557-0.828,9.258-1.311,14.04-1.311C442.665,121.485,477.672,156.485,477.672,199.584z"/>
		<path fill="#FFFFFF" d="M360.387,119.187h-10.172c0-38.066-30.974-69.04-69.047-69.04c-2.158,0-4.291,0.1-6.4,0.298l-0.946-10.133
			c2.42-0.225,4.87-0.337,7.347-0.337C324.851,39.976,360.387,75.512,360.387,119.187z"/>
	</g>
	<path display="inline" fill="#FFDC00" d="M382.48,245.704l22.344-65.683l-51.563,80.913c17.623,0,20.371,0,37.888,0l-22.345,65.677
		c49.338-77.464,40.285-63.266,51.563-80.907C402.5,245.704,400.381,245.704,382.48,245.704z"/>
	<g display="inline">
		<path fill="#FFDC00" d="M272.5,305.141l39.794-116.98L220.46,332.266c31.392,0,36.278,0,67.478,0l-39.796,116.98
			c87.882-137.967,71.756-112.675,91.835-144.105C308.156,305.141,304.381,305.141,272.5,305.141z"/>
		<polygon fill="#FFF000" points="312.294,188.161 248.726,318.704 312.294,318.704 248.142,449.246 339.977,305.141 272.5,305.141 
					"/>
	</g>
	<g display="inline">
		<path fill="#96DCF0" d="M138.393,394.939c0,11.316-9.192,20.482-20.508,20.482c-11.344,0-20.503-9.166-20.503-20.482
			c0-11.338,20.503-40.329,20.503-40.329S138.393,383.602,138.393,394.939z"/>
		<path fill="#A0E6FA" d="M138.393,394.939c0,11.316-9.192,20.482-20.508,20.482V354.61
			C117.884,354.61,138.393,383.602,138.393,394.939z"/>
	</g>
	<g display="inline">
		<path fill="#96DCF0" d="M234.762,426.068c0,13.411-10.895,24.272-24.305,24.272c-13.443,0-24.298-10.861-24.298-24.272
			c0-13.437,24.298-47.794,24.298-47.794S234.762,412.632,234.762,426.068z"/>
		<path fill="#A0E6FA" d="M234.762,426.068c0,13.411-10.895,24.272-24.305,24.272v-72.066
			C210.457,378.274,234.762,412.632,234.762,426.068z"/>
	</g>
	<g display="inline">
		<g>
			<path fill="#96DCF0" d="M210.585,350.006c0,19.327-15.705,34.984-35.031,34.984c-19.375,0-35.032-15.657-35.032-34.984
				c0-19.376,35.032-68.902,35.032-68.902S210.585,330.63,210.585,350.006z"/>
			<path fill="#A0E6FA" d="M210.585,350.006c0,19.327-15.705,34.984-35.031,34.984V281.104
				C175.554,281.104,210.585,330.63,210.585,350.006z"/>
			<path fill="#FFFFFF" d="M175.554,375.325v-4.831c11.324,0,20.535-9.191,20.535-20.488h4.833
				C200.921,363.968,189.54,375.325,175.554,375.325z"/>
		</g>
		<path fill="#96DCF0" d="M119.127,315.284c0,9.562-7.756,17.3-17.316,17.3c-9.58,0-17.308-7.738-17.308-17.3
			c0-9.568,17.308-34.048,17.308-34.048S119.127,305.716,119.127,315.284z"/>
		<path fill="#A0E6FA" d="M119.127,315.284c0,9.562-7.756,17.3-17.316,17.3v-51.348
			C101.812,281.236,119.127,305.716,119.127,315.284z"/>
	</g>
	<g display="inline">
		<g>
			<path fill="#96DCF0" d="M322.524,373.761c0,12.646,10.273,22.889,22.918,22.889c12.676,0,22.92-10.243,22.92-22.889
				c0-12.677-22.92-45.079-22.92-45.079S322.524,361.084,322.524,373.761z"/>
			<path fill="#A0E6FA" d="M322.524,373.761c0,12.646,10.273,22.889,22.918,22.889v-67.968
				C345.442,328.682,322.524,361.084,322.524,373.761z"/>
			<path fill="#FFFFFF" d="M345.442,390.325v-3.16c-7.408,0-13.435-6.014-13.435-13.404h-3.161
				C328.847,382.895,336.293,390.325,345.442,390.325z"/>
		</g>
		<path fill="#96DCF0" d="M382.359,351.045c0,6.255,5.074,11.317,11.328,11.317c6.268,0,11.323-5.063,11.323-11.317
			c0-6.261-11.323-22.276-11.323-22.276S382.359,344.784,382.359,351.045z"/>
		<path fill="#A0E6FA" d="M382.359,351.045c0,6.255,5.074,11.317,11.328,11.317v-33.594
			C393.688,328.769,382.359,344.784,382.359,351.045z"/>
	</g>
	<g display="inline">
		<path fill="#96DCF0" d="M442.113,313.942c0,8.019-6.514,14.514-14.532,14.514c-8.038,0-14.528-6.495-14.528-14.514
			c0-8.034,14.528-28.577,14.528-28.577S442.113,305.908,442.113,313.942z"/>
		<path fill="#A0E6FA" d="M442.113,313.942c0,8.019-6.514,14.514-14.532,14.514v-43.091
			C427.581,285.365,442.113,305.908,442.113,313.942z"/>
	</g>
</g>
<g id="Layer_3" display="none">
	<g display="inline">
		<path fill="#96DCF0" d="M311.47,392.912c0,44.474-36.056,80.527-80.521,80.527c-44.485,0-80.536-36.054-80.536-80.527
			c0-44.479,36.05-80.532,80.536-80.532C275.414,312.38,311.47,348.434,311.47,392.912z"/>
		<rect x="190.688" y="47.096" fill="#96DCF0" width="80.501" height="325.406"/>
		<path fill="#96DCF0" d="M271.08,47.096c0,22.164-17.979,40.134-40.131,40.134c-22.171,0-40.137-17.97-40.137-40.134
			c0-22.16,17.966-40.129,40.137-40.129C253.101,6.967,271.08,24.936,271.08,47.096z"/>
		<path fill="#96DCF0" d="M271.189,323.238V47.096h-0.109c0-22.16-17.979-40.129-40.131-40.129
			c-22.171,0-40.137,17.969-40.137,40.129h-0.124v276.143c-24.053,13.92-40.274,39.881-40.274,69.674
			c0,44.474,36.05,80.527,80.536,80.527c44.465,0,80.521-36.054,80.521-80.527C311.47,363.119,295.243,337.158,271.189,323.238z"/>
		<path fill="#A0E6FA" d="M311.47,392.912c0,44.498-36.028,80.527-80.521,80.527V6.959c22.151,0,40.095,17.942,40.095,40.171h0.133
			v276.1C295.238,337.158,311.47,363.128,311.47,392.912z"/>
		<path fill="#A0E6FA" d="M230.949,453.717c-33.543,0-60.822-27.276-60.822-60.805c0-21.587,11.67-41.741,30.445-52.605l9.834-5.703
			V66.818l0.124-19.723c0-11.25,9.161-20.406,20.418-20.406c11.245,0,20.397,9.156,20.397,20.406v19.723h0.13v267.785l9.843,5.703
			c18.767,10.864,30.432,31.019,30.432,52.605C291.751,426.44,264.473,453.717,230.949,453.717z"/>
		<path fill="#AAF0FF" d="M291.751,392.912c0-21.587-11.665-41.741-30.432-52.605l-9.843-5.703V66.818h-0.13V47.096
			c0-11.25-9.152-20.406-20.397-20.406v427.027C264.473,453.717,291.751,426.44,291.751,392.912z"/>
		<path fill="#FF5000" d="M210.407,156.251v178.353l-9.834,5.703c-18.775,10.864-30.445,31.019-30.445,52.605
			c0,33.528,27.278,60.805,60.822,60.805c33.523,0,60.802-27.276,60.802-60.805c0-21.587-11.665-41.741-30.432-52.605l-9.843-5.703
			V156.251H210.407z"/>
		<path fill="#FF6400" d="M291.751,392.912c0-21.587-11.665-41.741-30.432-52.605l-9.843-5.703V156.251h-20.527v297.466
			C264.473,453.717,291.751,426.44,291.751,392.912z"/>
		<g>
			<g>
				<path fill="#646464" d="M342.525,317.66c-19.838,0-27.734-10.402-27.927-29.856v-76.659h-12.328v-18.49h12.328v-43.147h24.654
					v43.147h18.491v18.49h-18.491v71.943c0,8.761,1.345,14.348,10.207,14.348c2.313,0,6.066-0.575,8.284-0.962v20.03
					C351.579,317.276,348.503,317.66,342.525,317.66z"/>
			</g>
			<g>
				<path fill="#646464" d="M381.535,207.238c-9.641,0-14.399-7.138-14.399-17.035v-24.683c0-10.188,4.468-17.035,14.399-17.035
					c9.865,0,14.398,6.879,14.398,17.035v24.683C395.934,200.167,391.24,207.238,381.535,207.238z M381.535,200.487
					c5.047,0,6.171-5.304,6.171-10.284v-24.683c0-5.239-0.896-10.284-6.171-10.284c-5.273,0-6.171,5.045-6.171,10.284v24.683
					C375.364,195.183,376.551,200.487,381.535,200.487z"/>
			</g>
		</g>
	</g>
</g>
</svg>
